<svg width="1100" height="720" viewBox="0 0 1100 720" fill="none" xmlns="http://www.w3.org/2000/svg">
  <rect width="1100" height="720" rx="28" fill="#F4F5F2"/>
  <text x="64" y="72" fill="#202124" font-family="-apple-system, BlinkMacSystemFont, Segoe UI, sans-serif" font-size="28" font-weight="700">Codex Usage Widget - current UI preview</text>
  <text x="64" y="104" fill="#6B6F76" font-family="-apple-system, BlinkMacSystemFont, Segoe UI, sans-serif" font-size="15">Approximation of the SwiftUI dashboard, menu bar popover, and WidgetKit small widget from the current source.</text>

  <g transform="translate(64 146)">
    <rect width="610" height="430" rx="18" fill="#FFFFFF" stroke="#D9DDD7"/>
    <g transform="translate(28 32)">
      <text x="0" y="26" fill="#1F2328" font-family="-apple-system, BlinkMacSystemFont, Segoe UI, sans-serif" font-size="24" font-weight="700">Codex Usage</text>
      <text x="0" y="54" fill="#71777F" font-family="-apple-system, BlinkMacSystemFont, Segoe UI, sans-serif" font-size="14">Updated just now</text>
      <rect x="472" y="5" width="82" height="34" rx="7" fill="#EEF1EE" stroke="#CDD3CD"/>
      <text x="490" y="27" fill="#2A2F34" font-family="-apple-system, BlinkMacSystemFont, Segoe UI, sans-serif" font-size="14" font-weight="600">Refresh</text>
    </g>

    <g transform="translate(28 124)">
      <rect width="554" height="112" rx="8" fill="#F7F8F6" stroke="#E0E4DF"/>
      <text x="18" y="34" fill="#272B30" font-family="-apple-system, BlinkMacSystemFont, Segoe UI, sans-serif" font-size="17" font-weight="700">Remaining</text>
      <text x="498" y="35" fill="#272B30" font-family="-apple-system, BlinkMacSystemFont, Segoe UI, sans-serif" font-size="20" font-weight="700">72%</text>
      <rect x="18" y="54" width="518" height="12" rx="6" fill="#DDE2DD"/>
      <rect x="18" y="54" width="373" height="12" rx="6" fill="#2E9F68"/>
      <text x="18" y="91" fill="#737A82" font-family="-apple-system, BlinkMacSystemFont, Segoe UI, sans-serif" font-size="14">Pro</text>
    </g>

    <g transform="translate(28 274)">
      <text x="0" y="0" fill="#272B30" font-family="-apple-system, BlinkMacSystemFont, Segoe UI, sans-serif" font-size="15" font-weight="700">Current month</text>
      <g transform="translate(0 22)">
        <rect x="0" y="0" width="14" height="14" rx="3" fill="#C7CCC7"/>
        <rect x="19" y="0" width="14" height="14" rx="3" fill="#7BC59E"/>
        <rect x="38" y="0" width="14" height="14" rx="3" fill="#58B782"/>
        <rect x="57" y="0" width="14" height="14" rx="3" fill="#2E9F68"/>
        <rect x="76" y="0" width="14" height="14" rx="3" fill="#A7D9BC"/>
        <rect x="95" y="0" width="14" height="14" rx="3" fill="#C7CCC7"/>
        <rect x="114" y="0" width="14" height="14" rx="3" fill="#58B782"/>
        <rect x="0" y="19" width="14" height="14" rx="3" fill="#2E9F68"/>
        <rect x="19" y="19" width="14" height="14" rx="3" fill="#58B782"/>
        <rect x="38" y="19" width="14" height="14" rx="3" fill="#A7D9BC"/>
        <rect x="57" y="19" width="14" height="14" rx="3" fill="#C7CCC7"/>
        <rect x="76" y="19" width="14" height="14" rx="3" fill="#7BC59E"/>
        <rect x="95" y="19" width="14" height="14" rx="3" fill="#2E9F68"/>
        <rect x="114" y="19" width="14" height="14" rx="3" fill="#58B782"/>
        <rect x="0" y="38" width="14" height="14" rx="3" fill="#C7CCC7"/>
        <rect x="19" y="38" width="14" height="14" rx="3" fill="#A7D9BC"/>
        <rect x="38" y="38" width="14" height="14" rx="3" fill="#7BC59E"/>
        <rect x="57" y="38" width="14" height="14" rx="3" fill="#58B782"/>
        <rect x="76" y="38" width="14" height="14" rx="3" fill="#2E9F68"/>
        <rect x="95" y="38" width="14" height="14" rx="3" fill="#C7CCC7"/>
        <rect x="114" y="38" width="14" height="14" rx="3" fill="#7BC59E"/>
        <rect x="0" y="57" width="14" height="14" rx="3" fill="#58B782"/>
        <rect x="19" y="57" width="14" height="14" rx="3" fill="#2E9F68"/>
        <rect x="38" y="57" width="14" height="14" rx="3" fill="#A7D9BC"/>
      </g>
      <text x="174" y="45" fill="#737A82" font-family="-apple-system, BlinkMacSystemFont, Segoe UI, sans-serif" font-size="14">Each square represents one day.</text>
      <text x="174" y="70" fill="#737A82" font-family="-apple-system, BlinkMacSystemFont, Segoe UI, sans-serif" font-size="14">Darker green means higher token usage.</text>
    </g>
  </g>

  <g transform="translate(724 146)">
    <rect width="306" height="282" rx="18" fill="#FFFFFF" stroke="#D9DDD7"/>
    <text x="28" y="44" fill="#272B30" font-family="-apple-system, BlinkMacSystemFont, Segoe UI, sans-serif" font-size="17" font-weight="700">Menu bar popover</text>
    <text x="28" y="82" fill="#272B30" font-family="-apple-system, BlinkMacSystemFont, Segoe UI, sans-serif" font-size="15">Remaining 72%</text>
    <text x="28" y="112" fill="#737A82" font-family="-apple-system, BlinkMacSystemFont, Segoe UI, sans-serif" font-size="14">Today 3,840 tokens</text>
    <line x1="28" y1="136" x2="278" y2="136" stroke="#E3E6E1"/>
    <text x="28" y="170" fill="#272B30" font-family="-apple-system, BlinkMacSystemFont, Segoe UI, sans-serif" font-size="14">Refresh</text>
    <text x="28" y="202" fill="#272B30" font-family="-apple-system, BlinkMacSystemFont, Segoe UI, sans-serif" font-size="14">Open Dashboard</text>
    <text x="28" y="234" fill="#272B30" font-family="-apple-system, BlinkMacSystemFont, Segoe UI, sans-serif" font-size="14">Settings...</text>
    <line x1="28" y1="250" x2="278" y2="250" stroke="#E3E6E1"/>
    <text x="28" y="272" fill="#272B30" font-family="-apple-system, BlinkMacSystemFont, Segoe UI, sans-serif" font-size="14">Quit</text>
  </g>

  <g transform="translate(724 462)">
    <rect width="230" height="178" rx="28" fill="#FFFFFF" stroke="#D9DDD7"/>
    <text x="24" y="42" fill="#272B30" font-family="-apple-system, BlinkMacSystemFont, Segoe UI, sans-serif" font-size="17" font-weight="700">Codex</text>
    <text x="24" y="94" fill="#1F2328" font-family="-apple-system, BlinkMacSystemFont, Segoe UI, sans-serif" font-size="42" font-weight="800">72%</text>
    <rect x="24" y="112" width="182" height="10" rx="5" fill="#DDE2DD"/>
    <rect x="24" y="112" width="131" height="10" rx="5" fill="#2E9F68"/>
    <text x="24" y="150" fill="#737A82" font-family="-apple-system, BlinkMacSystemFont, Segoe UI, sans-serif" font-size="13">Updated just now</text>
  </g>
</svg>
